<svg xmlns="http://www.w3.org/2000/svg" version="1.1" xmlns:xlink="http://www.w3.org/1999/xlink" xmlns:svgjs="http://svgjs.dev/svgjs" width="2000" height="1247" viewBox="0 0 2000 1247"><g transform="matrix(1,0,0,1,-1.2121212121212466,0.5048582995952984)"><svg viewBox="0 0 396 247" data-background-color="#ffffff" preserveAspectRatio="xMidYMid meet" height="1247" width="2000" xmlns="http://www.w3.org/2000/svg" xmlns:xlink="http://www.w3.org/1999/xlink"><g id="tight-bounds" transform="matrix(1,0,0,1,0.2400000000000091,-0.09999999999999432)"><svg viewBox="0 0 395.52 247.2" height="247.2" width="395.52"><g><svg></svg></g><g><svg viewBox="0 0 395.52 247.2" height="247.2" width="395.52"><mask id="4285415a-c8ec-43d7-b8d4-adc56270682f"><rect width="395.52" height="247.2" fill="white"></rect><g transform="matrix(1,0,0,1,26.938461538461553,37.08)" id="clone"><svg viewBox="0 0 341.6430769230769 173.04" height="173.04" width="341.6430769230769"><g><svg viewBox="0 0 341.6430769230769 173.04" height="173.04" width="341.6430769230769"><g><svg viewBox="0 0 341.64307692307693 173.04000000000002" height="173.04" width="341.6430769230769"><g><svg viewBox="0 0 341.64307692307693 173.04000000000002" height="173.04000000000002" width="341.64307692307693"><g id="SvgjsG2022"><svg viewBox="0 0 341.64307692307693 173.04000000000002" height="173.04000000000002" width="341.64307692307693" id="SvgjsSvg2021"><g><svg viewBox="0 0 341.64307692307693 173.04000000000002" height="173.04000000000002" width="341.64307692307693"><g transform="matrix(1,0,0,1,0,0)"><svg width="341.64307692307693" viewBox="-2.049999952316284 -40.400001525878906 85.69000244140625 43.900001525878906" height="173.04000000000002" data-palette-color="#ea1307"><path d="M13 0.5L13 0.5Q9.75 0.5 7-0.45 4.25-1.4 2.6-2.88 0.95-4.35 0.95-6L0.95-6Q0.95-6.85 1.4-7.83 1.85-8.8 2.63-9.5 3.4-10.2 4.35-10.2L4.35-10.2Q5.25-10.2 6.03-9.65 6.8-9.1 7.73-8.35 8.65-7.6 9.88-7.05 11.1-6.5 12.85-6.5L12.85-6.5Q14-6.5 15.13-6.83 16.25-7.15 16.98-7.88 17.7-8.6 17.7-9.8L17.7-9.8Q17.7-11.1 16.85-12.03 16-12.95 14.58-13.7 13.15-14.45 11.48-15.23 9.8-16 8.1-16.93 6.4-17.85 4.98-19.13 3.55-20.4 2.7-22.2 1.85-24 1.85-26.5L1.85-26.5Q1.85-29.3 2.95-31.28 4.05-33.25 5.9-34.48 7.75-35.7 10.03-36.27 12.3-36.85 14.65-36.85L14.65-36.85Q15.65-36.85 17.3-36.7 18.95-36.55 20.63-36.1 22.3-35.65 23.45-34.77 24.6-33.9 24.6-32.45L24.6-32.45Q24.6-31.8 24.28-30.83 23.95-29.85 23.28-29.1 22.6-28.35 21.5-28.35L21.5-28.35Q20.6-28.35 19.83-28.83 19.05-29.3 17.88-29.78 16.7-30.25 14.65-30.25L14.65-30.25Q12.9-30.25 11.78-29.83 10.65-29.4 10.15-28.73 9.65-28.05 9.65-27.25L9.65-27.25Q9.65-26.2 10.5-25.43 11.35-24.65 12.78-23.98 14.2-23.3 15.88-22.58 17.55-21.85 19.25-20.88 20.95-19.9 22.38-18.55 23.8-17.2 24.65-15.25 25.5-13.3 25.5-10.6L25.5-10.6Q25.5-7 23.88-4.53 22.25-2.05 19.45-0.78 16.65 0.5 13 0.5ZM33.95 0.5L33.95 0.5Q31.35 0.5 29.45-1.13 27.55-2.75 27.55-6.15L27.55-6.15Q27.55-9.1 29.05-10.75 30.55-12.4 33.17-13.05 35.8-13.7 39.25-13.7L39.25-13.7 41.05-13.7 41.05-14.2Q41.05-15.05 40.7-15.9 40.35-16.75 39.55-17.32 38.75-17.9 37.3-17.9L37.3-17.9Q35.25-17.9 34.25-17.5 33.25-17.1 32.7-16.68 32.15-16.25 31.45-16.25L31.45-16.25Q30.2-16.25 29.52-17.5 28.85-18.75 28.85-20.1L28.85-20.1Q28.85-21.3 30.22-22.2 31.6-23.1 33.57-23.6 35.55-24.1 37.4-24.1L37.4-24.1Q41.5-24.1 44-22.7 46.5-21.3 47.65-19.07 48.8-16.85 48.8-14.3L48.8-14.3 48.8-2.4Q48.8-1.4 47.72-0.7 46.65 0 45 0L45 0Q43.55 0 42.55-0.7 41.55-1.4 41.55-2.4L41.55-2.4 41.55-3.5Q40.2-1.95 38.4-0.73 36.6 0.5 33.95 0.5ZM37.3-5.15L37.3-5.15Q38.1-5.15 38.95-5.78 39.8-6.4 40.42-7.45 41.05-8.5 41.05-9.75L41.05-9.75 41.05-9.95 40.85-9.95Q39.45-9.95 38.17-9.78 36.9-9.6 36.12-9.03 35.35-8.45 35.35-7.25L35.35-7.25Q35.35-6.15 35.9-5.65 36.45-5.15 37.3-5.15ZM56.95 0L56.95 0Q55.25 0 54.17-0.75 53.1-1.5 53.1-2.4L53.1-2.4 53.1-21.45Q53.1-22.5 54.17-23.15 55.25-23.8 56.95-23.8L56.95-23.8Q58.55-23.8 59.7-23.15 60.85-22.5 60.85-21.45L60.85-21.45 60.85-2.4Q60.85-1.5 59.7-0.75 58.55 0 56.95 0ZM56.95-28.4L56.95-28.4Q55.25-28.4 54.05-29.5 52.85-30.6 52.85-32L52.85-32Q52.85-33.45 54.05-34.5 55.25-35.55 56.95-35.55L56.95-35.55Q58.65-35.55 59.82-34.5 61-33.45 61-32L61-32Q61-30.6 59.82-29.5 58.65-28.4 56.95-28.4ZM69.14 0L69.14 0Q67.54 0 66.44-0.65 65.34-1.3 65.34-2.35L65.34-2.35 65.34-27.35Q65.34-30.25 66.54-32.52 67.74-34.8 69.74-36.1 71.74-37.4 74.14-37.4L74.14-37.4 77.74-37.4Q79.19-37.4 79.92-36.38 80.64-35.35 80.64-34.15L80.64-34.15Q80.64-32.9 79.92-31.9 79.19-30.9 77.74-30.9L77.74-30.9 75.84-30.9Q75.04-30.9 74.42-30.6 73.79-30.3 73.44-29.73 73.09-29.15 73.09-28.2L73.09-28.2 73.09-23.8 78.74-23.8Q79.69-23.8 80.17-22.93 80.64-22.05 80.64-21.05L80.64-21.05Q80.64-20 80.17-19.15 79.69-18.3 78.74-18.3L78.74-18.3 73.09-18.3 73.09-2.35Q73.09-1.3 71.92-0.65 70.74 0 69.14 0Z" opacity="1" transform="matrix(1,0,0,1,0,0)" fill="black" class="wordmark-text-0" id="SvgjsPath2020" stroke-width="5" stroke="black" stroke-linejoin="round"></path></svg></g></svg></g></svg></g></svg></g></svg></g></svg></g></svg></g></mask><g mask="url(#4285415a-c8ec-43d7-b8d4-adc56270682f)"><g><path xmlns="http://www.w3.org/2000/svg" d="M196.271 247.2v0c-14.34 0-27.577-2.096-39.711-6.288-12.134-4.192-21.841-9.553-29.121-16.082-7.28-6.486-10.92-13.369-10.921-20.65v0c0-3.75 0.993-7.788 2.979-12.112 1.986-4.28 4.699-7.964 8.14-11.053 3.397-3.089 7.192-4.633 11.384-4.633v0c3.971 0 7.677 1.213 11.119 3.64 3.397 2.427 7.148 5.295 11.251 8.605 4.059 3.309 8.803 6.177 14.23 8.604 5.383 2.427 11.935 3.64 19.657 3.64v0c5.074 0 10.104-0.728 15.09-2.184 4.942-1.412 9.023-3.728 12.244-6.95 3.177-3.177 4.765-7.413 4.766-12.707v0c0-5.736-1.875-10.656-5.626-14.759-3.75-4.059-8.758-7.744-15.024-11.053-6.31-3.309-13.149-6.685-20.517-10.127-7.413-3.397-14.87-7.148-22.371-11.251-7.501-4.059-14.384-8.913-20.649-14.561-6.31-5.604-11.34-12.377-15.09-20.318-3.75-7.942-5.626-17.429-5.626-28.46v0c0-12.354 2.427-22.9 7.28-31.636 4.854-8.692 11.362-15.752 19.525-21.179 8.163-5.383 17.274-9.332 27.334-11.847 10.016-2.559 20.208-3.839 30.577-3.839v0c4.412 0 10.259 0.331 17.539 0.993 7.28 0.662 14.627 1.986 22.04 3.971 7.369 1.986 13.59 4.92 18.664 8.802 5.074 3.839 7.611 8.957 7.611 15.355v0c0 2.868-0.706 6.442-2.118 10.722-1.456 4.324-3.662 8.141-6.618 11.45-3 3.309-6.927 4.964-11.781 4.964v0c-3.971 0-7.655-1.059-11.053-3.177-3.442-2.074-7.744-4.17-12.906-6.287-5.207-2.074-12.332-3.111-21.378-3.111v0c-7.722 0-14.053 0.927-18.995 2.78-4.986 1.897-8.582 4.324-10.788 7.28-2.206 3-3.309 6.265-3.309 9.795v0c0 4.633 1.875 8.648 5.626 12.046 3.75 3.442 8.781 6.641 15.09 9.597 6.265 3 13.105 6.089 20.517 9.266 7.369 3.221 14.803 6.971 22.304 11.251 7.501 4.324 14.406 9.464 20.716 15.421 6.265 5.957 11.273 13.237 15.024 21.841 3.75 8.604 5.626 18.863 5.626 30.776v0c0 15.884-3.574 29.276-10.722 40.174-7.192 10.943-16.965 19.216-29.32 24.819-12.354 5.648-26.584 8.472-42.689 8.472z" fill="#ff6666" fill-rule="nonzero" stroke="none" stroke-width="1" stroke-linecap="butt" stroke-linejoin="miter" stroke-miterlimit="10" stroke-dasharray="" stroke-dashoffset="0" font-family="none" font-weight="none" font-size="none" text-anchor="none" style="mix-blend-mode: normal" data-fill-palette-color="tertiary"></path></g></g><g transform="matrix(1,0,0,1,26.938461538461553,37.08)"><svg viewBox="0 0 341.6430769230769 173.04" height="173.04" width="341.6430769230769"><g><svg viewBox="0 0 341.6430769230769 173.04" height="173.04" width="341.6430769230769"><g><svg viewBox="0 0 341.64307692307693 173.04000000000002" height="173.04" width="341.6430769230769"><g><svg viewBox="0 0 341.64307692307693 173.04000000000002" height="173.04000000000002" width="341.64307692307693"><g id="textblocktransform"><svg viewBox="0 0 341.64307692307693 173.04000000000002" height="173.04000000000002" width="341.64307692307693" id="textblock"><g><svg viewBox="0 0 341.64307692307693 173.04000000000002" height="173.04000000000002" width="341.64307692307693"><g transform="matrix(1,0,0,1,0,0)"><svg width="341.64307692307693" viewBox="-2.049999952316284 -40.400001525878906 85.69000244140625 43.900001525878906" height="173.04000000000002" data-palette-color="#ea1307"><path d="M13 0.5L13 0.5Q9.75 0.5 7-0.45 4.25-1.4 2.6-2.88 0.95-4.35 0.95-6L0.95-6Q0.95-6.85 1.4-7.83 1.85-8.8 2.63-9.5 3.4-10.2 4.35-10.2L4.35-10.2Q5.25-10.2 6.03-9.65 6.8-9.1 7.73-8.35 8.65-7.6 9.88-7.05 11.1-6.5 12.85-6.5L12.85-6.5Q14-6.5 15.13-6.83 16.25-7.15 16.98-7.88 17.7-8.6 17.7-9.8L17.7-9.8Q17.7-11.1 16.85-12.03 16-12.95 14.58-13.7 13.15-14.45 11.48-15.23 9.8-16 8.1-16.93 6.4-17.85 4.98-19.13 3.55-20.4 2.7-22.2 1.85-24 1.85-26.5L1.85-26.5Q1.85-29.3 2.95-31.28 4.05-33.25 5.9-34.48 7.75-35.7 10.03-36.27 12.3-36.85 14.65-36.85L14.65-36.85Q15.65-36.85 17.3-36.7 18.95-36.55 20.63-36.1 22.3-35.65 23.45-34.77 24.6-33.9 24.6-32.45L24.6-32.45Q24.6-31.8 24.28-30.83 23.95-29.85 23.28-29.1 22.6-28.35 21.5-28.35L21.5-28.35Q20.6-28.35 19.83-28.83 19.05-29.3 17.88-29.78 16.7-30.25 14.65-30.25L14.65-30.25Q12.9-30.25 11.78-29.83 10.65-29.4 10.15-28.73 9.65-28.05 9.65-27.25L9.65-27.25Q9.65-26.2 10.5-25.43 11.35-24.65 12.78-23.98 14.2-23.3 15.88-22.58 17.55-21.85 19.25-20.88 20.95-19.9 22.38-18.55 23.8-17.2 24.65-15.25 25.5-13.3 25.5-10.6L25.5-10.6Q25.5-7 23.88-4.53 22.25-2.05 19.45-0.78 16.65 0.5 13 0.5ZM33.95 0.5L33.95 0.5Q31.35 0.5 29.45-1.13 27.55-2.75 27.55-6.15L27.55-6.15Q27.55-9.1 29.05-10.75 30.55-12.4 33.17-13.05 35.8-13.7 39.25-13.7L39.25-13.7 41.05-13.7 41.05-14.2Q41.05-15.05 40.7-15.9 40.35-16.75 39.55-17.32 38.75-17.9 37.3-17.9L37.3-17.9Q35.25-17.9 34.25-17.5 33.25-17.1 32.7-16.68 32.15-16.25 31.45-16.25L31.45-16.25Q30.2-16.25 29.52-17.5 28.85-18.75 28.85-20.1L28.85-20.1Q28.85-21.3 30.22-22.2 31.6-23.1 33.57-23.6 35.55-24.1 37.4-24.1L37.4-24.1Q41.5-24.1 44-22.7 46.5-21.3 47.65-19.07 48.8-16.85 48.8-14.3L48.8-14.3 48.8-2.4Q48.8-1.4 47.72-0.7 46.65 0 45 0L45 0Q43.55 0 42.55-0.7 41.55-1.4 41.55-2.4L41.55-2.4 41.55-3.5Q40.2-1.95 38.4-0.73 36.6 0.5 33.95 0.5ZM37.3-5.15L37.3-5.15Q38.1-5.15 38.95-5.78 39.8-6.4 40.42-7.45 41.05-8.5 41.05-9.75L41.05-9.75 41.05-9.95 40.85-9.95Q39.45-9.95 38.17-9.78 36.9-9.6 36.12-9.03 35.35-8.45 35.35-7.25L35.35-7.25Q35.35-6.15 35.9-5.65 36.45-5.15 37.3-5.15ZM56.95 0L56.95 0Q55.25 0 54.17-0.75 53.1-1.5 53.1-2.4L53.1-2.4 53.1-21.45Q53.1-22.5 54.17-23.15 55.25-23.8 56.95-23.8L56.95-23.8Q58.55-23.8 59.7-23.15 60.85-22.5 60.85-21.45L60.85-21.45 60.85-2.4Q60.85-1.5 59.7-0.75 58.55 0 56.95 0ZM56.95-28.4L56.95-28.4Q55.25-28.4 54.05-29.5 52.85-30.6 52.85-32L52.85-32Q52.85-33.45 54.05-34.5 55.25-35.55 56.95-35.55L56.95-35.55Q58.65-35.55 59.82-34.5 61-33.45 61-32L61-32Q61-30.6 59.82-29.5 58.65-28.4 56.95-28.4ZM69.14 0L69.14 0Q67.54 0 66.44-0.65 65.34-1.3 65.34-2.35L65.34-2.35 65.34-27.35Q65.34-30.25 66.54-32.52 67.74-34.8 69.74-36.1 71.74-37.4 74.14-37.4L74.14-37.4 77.74-37.4Q79.19-37.4 79.92-36.38 80.64-35.35 80.64-34.15L80.64-34.15Q80.64-32.9 79.92-31.9 79.19-30.9 77.74-30.9L77.74-30.9 75.84-30.9Q75.04-30.9 74.42-30.6 73.79-30.3 73.44-29.73 73.09-29.15 73.09-28.2L73.09-28.2 73.09-23.8 78.74-23.8Q79.69-23.8 80.17-22.93 80.64-22.05 80.64-21.05L80.64-21.05Q80.64-20 80.17-19.15 79.69-18.3 78.74-18.3L78.74-18.3 73.09-18.3 73.09-2.35Q73.09-1.3 71.92-0.65 70.74 0 69.14 0Z" opacity="1" transform="matrix(1,0,0,1,0,0)" fill="#ea1307" class="wordmark-text-0" data-fill-palette-color="primary" id="text-0"></path></svg></g></svg></g></svg></g></svg></g></svg></g></svg></g></svg></g></svg></g><defs></defs></svg><rect width="395.52" height="247.2" fill="none" stroke="none" visibility="hidden"></rect></g></svg></g></svg>